<?xml version="1.0" encoding="utf-8"?>
<!-- Generator: Adobe Illustrator 16.0.0, SVG Export Plug-In . SVG Version: 6.00 Build 0)  -->
<!DOCTYPE svg PUBLIC "-//W3C//DTD SVG 1.1//EN" "http://www.w3.org/Graphics/SVG/1.1/DTD/svg11.dtd">
<svg version="1.1" id="Layer_1" xmlns="http://www.w3.org/2000/svg" xmlns:xlink="http://www.w3.org/1999/xlink" x="0px" y="0px"
	 width="234px" height="70px" viewBox="0 0 234 70" enable-background="new 0 0 234 70" xml:space="preserve">
<g>
	<path fill="#545454" d="M1.351,46.354h2.099v6.029h7.724v-6.029h2.078v14.396h-2.078v-6.795H3.449v6.795H1.351V46.354z"/>
	<path fill="#545454" d="M28.084,56.353h-6.051l-1.604,4.398h-2.123l5.622-14.396h2.327l5.622,14.396h-2.213L28.084,56.353z
		 M27.566,54.897l-0.792-2.2c-0.608-1.63-1.128-3.199-1.671-4.869h-0.09c-0.521,1.689-1.062,3.239-1.648,4.869l-0.813,2.2H27.566z"
		/>
	<path fill="#545454" d="M36.912,46.354h2.168l6.028,9.075l1.763,2.965h0.111c-0.111-1.456-0.269-3.064-0.269-4.556v-7.484H48.7
		v14.396h-2.146l-6.029-9.094l-1.784-2.965H38.65c0.091,1.452,0.249,2.984,0.249,4.497v7.562h-1.987V46.354z"/>
	<path fill="#545454" d="M54.23,46.354h2.166l1.74,7.838c0.315,1.55,0.654,3.102,0.97,4.651h0.09
		c0.385-1.55,0.791-3.102,1.197-4.651l2.281-7.838h1.897l2.326,7.838c0.406,1.532,0.79,3.082,1.174,4.651h0.113
		c0.315-1.569,0.633-3.119,0.949-4.651l1.736-7.838h2.012L69.45,60.751h-2.506l-2.508-8.681c-0.294-1.138-0.542-2.182-0.812-3.278
		h-0.091c-0.273,1.097-0.565,2.141-0.836,3.278l-2.462,8.681h-2.484L54.23,46.354z"/>
	<path fill="#545454" d="M78.456,46.354h2.101v6.029h7.724v-6.029h2.076v14.396H88.28v-6.795h-7.724v6.795h-2.101V46.354z"/>
	<path fill="#545454" d="M105.191,56.353H99.14l-1.604,4.398h-2.122l5.623-14.396h2.326l5.622,14.396h-2.214L105.191,56.353z
		 M104.672,54.897l-0.79-2.2c-0.61-1.63-1.129-3.199-1.671-4.869h-0.09c-0.52,1.689-1.063,3.239-1.648,4.869l-0.815,2.2H104.672z"/>
	<path fill="#545454" d="M130.886,60.751l-4.02-6.109h-2.98v6.109h-2.101V46.354h5.193c3.365,0,5.781,1.044,5.781,4.049
		c0,2.235-1.489,3.57-3.749,4.041l4.245,6.307H130.886z M123.886,53.172h2.778c2.595,0,4.018-0.904,4.018-2.769
		c0-1.904-1.423-2.575-4.018-2.575h-2.778V53.172z"/>
	<path fill="#545454" d="M138.833,46.354h9.551v1.532h-7.449v4.52h6.276v1.55h-6.276v5.245h7.699v1.55h-9.801V46.354z"/>
	<path fill="#545454" d="M153.623,58.865l1.24-1.236c1.196,1.08,2.869,1.787,4.583,1.787c2.172,0,3.48-0.945,3.48-2.356
		c0-1.474-1.197-1.944-2.754-2.553l-2.396-0.904c-1.535-0.569-3.364-1.591-3.364-3.692c0-2.217,2.212-3.829,5.215-3.829
		c1.965,0,3.705,0.726,4.879,1.787l-1.106,1.16c-1.016-0.824-2.236-1.356-3.772-1.356c-1.874,0-3.092,0.827-3.092,2.119
		c0,1.396,1.444,1.925,2.731,2.396l2.371,0.888c1.92,0.725,3.409,1.706,3.409,3.847c0,2.28-2.166,4.085-5.622,4.085
		C157.075,61.006,155.067,60.183,153.623,58.865z"/>
	<path fill="#545454" d="M170.061,53.504c0-4.614,2.913-7.423,7.067-7.423c4.155,0,7.068,2.809,7.068,7.423
		c0,4.613-2.913,7.502-7.068,7.502C172.974,61.006,170.061,58.117,170.061,53.504z M182.052,53.504c0-3.615-1.965-5.832-4.924-5.832
		c-2.981,0-4.923,2.217-4.923,5.832c0,3.597,1.941,5.912,4.923,5.912C180.087,59.416,182.052,57.101,182.052,53.504z"/>
	<path fill="#545454" d="M199.571,60.751l-4.02-6.109h-2.981v6.109h-2.1V46.354h5.192c3.367,0,5.782,1.044,5.782,4.049
		c0,2.235-1.489,3.57-3.749,4.041l4.245,6.307H199.571z M192.57,53.172h2.779c2.598,0,4.019-0.904,4.019-2.769
		c0-1.904-1.421-2.575-4.019-2.575h-2.779V53.172z"/>
	<path fill="#545454" d="M210.633,47.887h-5.013v-1.532h12.128v1.532h-5.013v12.864h-2.103V47.887z"/>
	<path fill="#545454" d="M221.225,58.865l1.239-1.236c1.197,1.08,2.868,1.787,4.585,1.787c2.17,0,3.478-0.945,3.478-2.356
		c0-1.474-1.196-1.944-2.753-2.553l-2.393-0.904c-1.539-0.569-3.367-1.591-3.367-3.692c0-2.217,2.213-3.829,5.216-3.829
		c1.964,0,3.703,0.726,4.878,1.787L231,49.028c-1.016-0.824-2.234-1.356-3.771-1.356c-1.873,0-3.094,0.827-3.094,2.119
		c0,1.396,1.444,1.925,2.732,2.396l2.371,0.888c1.92,0.725,3.41,1.706,3.41,3.847c0,2.28-2.167,4.085-5.622,4.085
		C224.678,61.006,222.67,60.183,221.225,58.865z"/>
</g>
<g>
	<path fill-rule="evenodd" clip-rule="evenodd" fill="#FBB584" d="M108.326,39.514c-0.028,0.61-0.034,0.623-0.529,0.3
		c-4.511-2.925-7.313-6.988-8.035-12.354c-0.678-5.053,0.741-9.513,4.02-13.399c1.177-1.394,2.57-2.525,4.104-3.493
		c0.192-0.123,0.409-0.271,0.44,0.14c0.093,0.16,0.047,0.337,0.047,0.505c0.004,9.265,0.004,18.529,0,27.794
		C108.373,39.172,108.418,39.353,108.326,39.514z"/>
	<path fill-rule="evenodd" clip-rule="evenodd" fill="#FBB584" d="M134.404,25.531c-0.141,5.001-2.191,9.386-6.222,12.834
		c-0.657,0.561-1.361,1.055-2.092,1.516c-0.309,0.198-0.365,0.095-0.354-0.21c0.015-0.396,0.005-0.786,0.005-1.179
		c0-9.14,0-18.283-0.002-27.424c0-0.078,0.005-0.156-0.003-0.234c-0.031-0.398,0.11-0.427,0.421-0.226
		c4.538,2.949,7.311,7.037,8.07,12.434C134.328,23.77,134.391,24.502,134.404,25.531z"/>
	<path fill-rule="evenodd" clip-rule="evenodd" fill="#F37321" d="M120.651,31.227c-0.225-0.036-0.336-0.222-0.478-0.361
		c-0.908-0.879-1.813-1.765-2.72-2.647c-0.21-0.138-0.412-0.318-0.68-0.112c-1.116,1.044-2.241,2.089-3.367,3.138
		c-0.15-0.141-0.083-0.306-0.083-0.45c-0.003-7.355-0.003-14.708-0.008-22.062c0-0.321,0-0.561,0.417-0.635
		c2.196-0.39,4.387-0.406,6.579,0.029c0.121,0.025,0.251,0.034,0.343,0.132c0.089,0.163,0.045,0.339,0.045,0.509
		c0.005,7.318,0.005,14.636,0,21.953C120.701,30.892,120.753,31.067,120.651,31.227z"/>
	<path fill-rule="evenodd" clip-rule="evenodd" fill="#F37321" d="M113.326,33.781c1.137-1.101,2.281-2.197,3.405-3.311
		c0.247-0.243,0.407-0.263,0.65-0.015c1.006,1.012,2.021,2.012,3.042,3.012c0.17,0.166,0.24,0.347,0.237,0.584
		c-0.004,2.586-0.009,5.175,0.005,7.763c0,0.342-0.145,0.458-0.45,0.516c-2.147,0.41-4.297,0.382-6.444,0
		c-0.212-0.039-0.454-0.063-0.454-0.372c-0.074-0.112-0.045-0.241-0.045-0.363c-0.003-2.485-0.003-4.971,0-7.452
		C113.272,34.021,113.235,33.889,113.326,33.781z"/>
	<path fill-rule="evenodd" clip-rule="evenodd" fill="#F89B6C" d="M124.048,9.671c0.026-0.085-0.007-0.212,0.121-0.227
		c0.406-0.046,1.091,0.575,1.091,0.989c0.002,9.849,0.002,19.697,0,29.543c0,0.484-0.644,1.068-1.111,1.005
		c-0.041-0.009-0.067-0.099-0.101-0.148c-0.092-0.161-0.047-0.336-0.047-0.507c-0.003-10.05-0.003-20.099,0-30.148
		C124.001,10.008,123.956,9.831,124.048,9.671z"/>
	<path fill-rule="evenodd" clip-rule="evenodd" fill="#F89B6C" d="M108.97,9.865c0.271-0.124,0.543-0.243,0.811-0.368
		c0.195-0.095,0.298-0.056,0.293,0.174c-0.003,0.11,0,0.22,0,0.33c0,10.136,0,20.275,0,30.411c0,0.107,0,0.22,0,0.327
		c0,0.247-0.109,0.311-0.327,0.202c-0.265-0.131-0.531-0.261-0.8-0.396c-0.083-0.18-0.042-0.367-0.042-0.556
		c-0.002-9.72-0.002-19.442,0.003-29.164C108.91,10.506,108.789,10.175,108.97,9.865z"/>
	<path fill-rule="evenodd" clip-rule="evenodd" fill="#F89B6C" d="M124.048,9.671c0.005,1.378,0.011,2.757,0.011,4.134
		c0.002,8.773,0.002,17.549,0,26.324c0,0.232-0.006,0.471-0.011,0.703c-0.14-0.161-0.094-0.354-0.094-0.543
		c0-10.025,0-20.052,0-30.079C123.954,10.029,123.908,9.831,124.048,9.671z"/>
	<path fill-rule="evenodd" clip-rule="evenodd" fill="#F89B6C" d="M108.97,9.865c-0.007,0.156-0.024,0.313-0.024,0.469
		c0,10.071,0.001,20.142,0.001,30.211c-0.148-0.193-0.088-0.421-0.088-0.633c-0.002-9.648,0-19.297-0.005-28.943
		c0-0.229,0.045-0.457-0.1-0.684C108.617,10.076,108.918,10.017,108.97,9.865z"/>
	<path fill-rule="evenodd" clip-rule="evenodd" fill="#FBB584" d="M108.326,39.514c0-1.566-0.008-3.133-0.008-4.7
		c0-7.849,0-15.696,0-23.542c0-0.188,0.008-0.376,0.008-0.564c0.142,0.16,0.093,0.358,0.098,0.539c0,9.244,0,18.484,0,27.729
		C108.418,39.154,108.467,39.353,108.326,39.514z"/>
	<path fill-rule="evenodd" clip-rule="evenodd" fill="#F37321" d="M120.651,31.227c0.003-7.657,0.003-15.312,0.005-22.966
		c0.141,0.163,0.094,0.358,0.094,0.542c0.003,7.295,0.003,14.591,0,21.886C120.75,30.872,120.8,31.069,120.651,31.227z"/>
	<path fill-rule="evenodd" clip-rule="evenodd" fill="#FFFFFF" d="M116.774,28.107c0.304-0.441,0.49-0.15,0.68,0.112
		C117.229,28.18,117.002,28.146,116.774,28.107z"/>
</g>
</svg>
