<?xml version="1.0" encoding="utf-8"?>
<!-- Generator: Adobe Illustrator 16.0.0, SVG Export Plug-In . SVG Version: 6.00 Build 0)  -->
<!DOCTYPE svg PUBLIC "-//W3C//DTD SVG 1.1//EN" "http://www.w3.org/Graphics/SVG/1.1/DTD/svg11.dtd">
<svg version="1.1" id="Layer_1" xmlns="http://www.w3.org/2000/svg" xmlns:xlink="http://www.w3.org/1999/xlink" x="0px" y="0px"
	 width="300px" height="100px" viewBox="0 0 300 100" enable-background="new 0 0 300 100" xml:space="preserve">
<path fill="#EA1F85" d="M27.096,36.063v-7.387h-7.39v7.877C22.126,36.155,24.568,35.927,27.096,36.063z"/>
<path fill="#5848EF" d="M40.254,51.792c0,2.224-0.541,3.876-1.623,4.957c-1.111,1.172-2.869,1.758-5.272,1.758
	c-1.893,0-3.379-0.57-4.461-1.713c-1.202-1.201-1.802-2.974-1.802-5.317V36.063c-2.528-0.135-4.97,0.093-7.39,0.491v15.464
	c0,1.773,0.226,3.35,0.676,4.731c0.451,1.442,1.142,2.704,2.073,3.785c1.352,1.563,3.154,2.703,5.407,3.425
	c1.742,0.601,3.62,0.901,5.632,0.901c4.445,0,7.87-1.066,10.274-3.2c2.553-2.253,3.83-5.632,3.83-10.138V40.548
	c-2.438-0.685-4.884-1.343-7.345-1.952V51.792z"/>
<path fill="#EA1F85" d="M40.254,28.676v9.92c2.461,0.609,4.907,1.267,7.345,1.952V28.676H40.254z"/>
<path fill="#5848EF" d="M56.926,64.004h7.21V45.427c-2.403-0.708-4.805-1.432-7.21-2.152V64.004z"/>
<path fill="#EA1F85" d="M56.926,28.676v14.599c2.405,0.72,4.807,1.443,7.21,2.152V28.676H56.926z"/>
<path fill="#EA1F85" d="M115.37,34.579c-2.403-3.935-6.173-5.903-11.311-5.903H88.875V51.36c2.341,0.363,4.699,0.646,7.074,0.849
	V34.76h6.804c2.192,0,3.891,0.57,5.092,1.712c1.862,1.772,2.794,4.972,2.794,9.598c0,2.403-0.301,4.474-0.894,6.222
	c2.548-0.2,5.124-0.525,7.734-0.999c0.359-1.783,0.55-3.699,0.55-5.763C118.028,41.144,117.142,37.493,115.37,34.579z"/>
<path fill="#5848EF" d="M108.926,54.181c-1.322,2.523-3.32,3.785-5.993,3.785h-6.984v-5.757c-2.375-0.202-4.733-0.485-7.074-0.849
	v12.644h14.96c5.047,0,8.816-2.133,11.31-6.398c1.092-1.859,1.862-3.97,2.334-6.313c-2.61,0.474-5.186,0.799-7.734,0.999
	C109.514,52.968,109.245,53.602,108.926,54.181z"/>
<path fill="#5848EF" d="M125.283,64.004h26.044v-6.219h-18.969v-9.192h16.672v-3.542c-7.836,1.601-15.725,3.21-23.747,4.762V64.004z
	"/>
<path fill="#EA1F85" d="M132.358,42.42v-7.48h18.204v-6.264h-25.279v21.138c8.022-1.552,15.911-3.161,23.747-4.762V42.42H132.358z"
	/>
<path fill="#EA1F85" d="M183.86,39.175c-0.006-0.281-0.027-0.555-0.051-0.829c-1.574,0.272-3.147,0.546-4.714,0.829H183.86z"/>
<path fill="#EA1F85" d="M170.478,27.775c-4.928,0-8.531,1.322-10.814,3.965c-1.621,1.893-2.418,4.19-2.389,6.895
	c0,1.778,0.289,3.298,0.856,4.567c2.856-0.576,5.714-1.146,8.577-1.705c-0.676-0.232-1.194-0.48-1.547-0.746
	c-0.813-0.601-1.217-1.471-1.217-2.613c0-1.441,0.66-2.538,1.982-3.289c1.082-0.601,2.418-0.901,4.01-0.901
	c2.705,0,4.656,0.676,5.859,2.027c0.66,0.782,1.08,1.848,1.26,3.199h2.04c1.566-0.282,3.14-0.557,4.714-0.829
	c-0.21-2.472-1.119-4.631-2.742-6.471C178.663,29.143,175.134,27.775,170.478,27.775z"/>
<path fill="#5848EF" d="M158.177,43.321c0.541,1.142,1.365,2.103,2.479,2.884c0.9,0.631,2.057,1.187,3.469,1.667
	c0.871,0.271,2.238,0.631,4.102,1.081l3.693,0.946c2.133,0.451,3.621,0.917,4.461,1.397c1.172,0.691,1.758,1.667,1.758,2.929
	c0,1.652-0.781,2.854-2.342,3.604c-1.203,0.571-2.811,0.856-4.822,0.856c-2.824,0-4.852-0.69-6.084-2.072
	c-0.811-0.901-1.232-2.058-1.262-3.47h-6.893c0,2.944,0.885,5.423,2.658,7.435c2.492,2.854,6.518,4.281,12.076,4.281
	c2.943,0,5.572-0.602,7.885-1.803c3.785-1.952,5.678-5.167,5.678-9.643c0-2.944-0.932-5.197-2.793-6.76
	c-1.352-1.141-3.426-2.042-6.219-2.703l-8.426-2.163l-0.092-0.045c-0.287-0.08-0.551-0.163-0.795-0.247
	c-2.863,0.559-5.721,1.128-8.577,1.705C158.147,43.24,158.159,43.284,158.177,43.321z"/>
<path fill="#5848EF" d="M193.368,36.78v27.224h7.211V35.7c-1.213,0.149-2.431,0.319-3.656,0.518
	C195.728,36.395,194.556,36.595,193.368,36.78z"/>
<path fill="#EA1F85" d="M193.368,28.676v8.104c1.188-0.185,2.359-0.385,3.555-0.563c1.226-0.199,2.443-0.369,3.656-0.518v-7.024
	H193.368z"/>
<path fill="#EA1F85" d="M233.067,38.274c0.33,0.601,0.496,1.097,0.496,1.486h7.209c-0.025-0.283-0.068-0.559-0.112-0.835
	c-2.797-0.746-5.617-1.401-8.462-1.954C232.527,37.389,232.829,37.818,233.067,38.274z"/>
<path fill="#EA1F85" d="M220.829,35.361c1.435-0.904,3.107-1.368,5.029-1.368c1.201,0,2.342,0.226,3.424,0.676
	c0.871,0.421,1.668,0.977,2.389,1.668c0.193,0.204,0.357,0.42,0.527,0.635c2.845,0.553,5.665,1.208,8.462,1.954
	c-0.415-2.626-1.634-4.948-3.673-6.96c-2.854-2.733-6.684-4.101-11.49-4.101c-5.498,0-9.764,1.908-12.797,5.723
	c-0.359,0.452-0.689,0.923-1,1.408C214.778,34.978,217.821,35.101,220.829,35.361z"/>
<path fill="#5848EF" d="M226.534,50.937h8.02c0,3.004-1.201,5.137-3.604,6.398c-1.473,0.781-3.125,1.172-4.957,1.172
	c-2.855,0-5.137-0.812-6.85-2.434c-2.104-2.013-3.154-5.182-3.154-9.508c0-4.206,0.992-7.42,2.975-9.644
	c0.566-0.624,1.191-1.136,1.865-1.561c-3.008-0.26-6.051-0.383-9.129-0.365c-2.004,3.129-3.01,6.954-3.01,11.479
	c0,5.798,1.576,10.379,4.73,13.743c2.914,3.095,6.594,4.642,11.039,4.642c2.975,0,5.453-0.631,7.436-1.893
	c1.771-1.111,2.658-2.283,2.658-3.515v4.415h6.443v-18.79h-14.463V50.937z"/>
<path fill="#5848EF" d="M248.253,64.004h6.713V43.496c-2.227-0.821-4.465-1.597-6.713-2.326V64.004z"/>
<path fill="#EA1F85" d="M255.868,28.676h-7.615V41.17c2.248,0.729,4.486,1.505,6.713,2.326v-4.637h0.137l3.302,5.943
	c2.755,1.072,5.496,2.201,8.229,3.374L255.868,28.676z"/>
<path fill="#EA1F85" d="M276.19,28.676h-6.67v20.756c2.228,0.981,4.45,1.985,6.67,3.009V28.676z"/>
<path fill="#5848EF" d="M269.521,49.432v3.893h-0.045l-2.842-5.148c-2.733-1.173-5.475-2.302-8.229-3.374l10.667,19.202h7.119V52.44
	C273.971,51.417,271.748,50.413,269.521,49.432z"/>
</svg>
