<?xml version="1.0" encoding="utf-8"?>
<!-- Generator: Adobe Illustrator 16.0.0, SVG Export Plug-In . SVG Version: 6.00 Build 0)  -->
<!DOCTYPE svg PUBLIC "-//W3C//DTD SVG 1.1//EN" "http://www.w3.org/Graphics/SVG/1.1/DTD/svg11.dtd">
<svg version="1.1" id="Layer_1" xmlns="http://www.w3.org/2000/svg" xmlns:xlink="http://www.w3.org/1999/xlink" x="0px" y="0px"
	 width="262.602px" height="130.098px" viewBox="0 0 262.602 130.098" enable-background="new 0 0 262.602 130.098"
	 xml:space="preserve">
<g>
	<path fill="#3A4317" stroke="#3A4317" stroke-miterlimit="10" d="M29.736,81.396V51.345h4.235l9.631,15.204
		c2.229,3.522,3.968,6.688,5.395,9.764l0.089-0.044c-0.356-4.013-0.446-7.669-0.446-12.351V51.345h3.656v30.051h-3.924
		l-9.541-15.249c-2.096-3.344-4.102-6.777-5.618-10.032L33.08,56.16c0.223,3.79,0.312,7.401,0.312,12.395v12.841H29.736z"/>
	<path fill="#3A4317" stroke="#3A4317" stroke-miterlimit="10" d="M70.893,81.396l-0.313-2.72h-0.134
		c-1.204,1.694-3.522,3.21-6.599,3.21c-4.369,0-6.599-3.076-6.599-6.197c0-5.217,4.637-8.07,12.975-8.025v-0.446
		c0-1.784-0.491-4.994-4.904-4.994c-2.007,0-4.102,0.624-5.618,1.605l-0.892-2.586c1.783-1.159,4.369-1.917,7.089-1.917
		c6.599,0,8.204,4.503,8.204,8.828v8.07c0,1.873,0.089,3.701,0.357,5.172H70.893z M70.313,70.383c-4.28-0.089-9.14,0.668-9.14,4.86
		c0,2.542,1.694,3.745,3.701,3.745c2.809,0,4.593-1.783,5.217-3.611c0.134-0.401,0.223-0.847,0.223-1.249V70.383z"/>
	<path fill="#3A4317" stroke="#3A4317" stroke-miterlimit="10" d="M84.984,53.619v6.198h5.618v2.987h-5.618V74.44
		c0,2.675,0.758,4.191,2.943,4.191c1.025,0,1.783-0.134,2.273-0.268l0.179,2.942c-0.758,0.313-1.962,0.535-3.478,0.535
		c-1.828,0-3.299-0.58-4.235-1.649c-1.115-1.16-1.516-3.077-1.516-5.618V62.804h-3.344v-2.987h3.344v-5.172L84.984,53.619z"/>
	<path fill="#3A4317" stroke="#3A4317" stroke-miterlimit="10" d="M113.074,75.511c0,2.229,0.045,4.191,0.179,5.885h-3.478
		l-0.223-3.522h-0.089c-1.025,1.739-3.299,4.013-7.134,4.013c-3.389,0-7.446-1.873-7.446-9.452V59.816h3.923v11.949
		c0,4.102,1.249,6.866,4.815,6.866c2.631,0,4.458-1.828,5.172-3.567c0.223-0.58,0.357-1.293,0.357-2.006V59.816h3.923V75.511z"/>
	<path fill="#3A4317" stroke="#3A4317" stroke-miterlimit="10" d="M137.644,75.511c0,2.229,0.045,4.191,0.179,5.885h-3.478
		l-0.223-3.522h-0.089c-1.025,1.739-3.299,4.013-7.134,4.013c-3.389,0-7.446-1.873-7.446-9.452V59.816h3.923v11.949
		c0,4.102,1.249,6.866,4.815,6.866c2.631,0,4.458-1.828,5.172-3.567c0.223-0.58,0.357-1.293,0.357-2.006V59.816h3.923V75.511z"/>
	<path fill="#3A4317" stroke="#3A4317" stroke-miterlimit="10" d="M144.157,66.549c0-2.542-0.044-4.726-0.178-6.732h3.433
		l0.134,4.235h0.178c0.981-2.898,3.344-4.726,5.975-4.726c0.446,0,0.758,0.045,1.114,0.134v3.701
		c-0.401-0.089-0.802-0.134-1.337-0.134c-2.764,0-4.726,2.096-5.261,5.039c-0.089,0.535-0.178,1.159-0.178,1.828v11.503h-3.879
		V66.549z"/>
</g>
<g>
	<path fill="#3A4317" d="M29.703,94.523v-6.232h0.878l1.998,3.153c0.462,0.73,0.823,1.387,1.119,2.025l0.019-0.009
		c-0.074-0.832-0.092-1.59-0.092-2.561v-2.608h0.758v6.232h-0.814l-1.979-3.163c-0.435-0.693-0.851-1.405-1.165-2.081l-0.027,0.009
		c0.046,0.786,0.064,1.535,0.064,2.571v2.663H29.703z"/>
	<path fill="#3A4317" d="M36.791,92.563l-0.647,1.96h-0.833l2.118-6.232H38.4l2.126,6.232h-0.86l-0.666-1.96H36.791z M38.834,91.934
		l-0.61-1.793c-0.139-0.407-0.231-0.777-0.324-1.138h-0.019c-0.092,0.37-0.194,0.749-0.314,1.128l-0.61,1.803H38.834z"/>
	<path fill="#3A4317" d="M41.91,88.975h-1.896v-0.684h4.614v0.684h-1.905v5.548H41.91V88.975z"/>
	<path fill="#3A4317" d="M46.123,88.291v3.689c0,1.396,0.62,1.988,1.452,1.988c0.925,0,1.517-0.61,1.517-1.988v-3.689h0.813v3.634
		c0,1.914-1.008,2.7-2.358,2.7c-1.276,0-2.238-0.73-2.238-2.663v-3.671H46.123z"/>
	<path fill="#3A4317" d="M51.296,88.375c0.407-0.083,0.99-0.13,1.544-0.13c0.86,0,1.415,0.157,1.803,0.509
		c0.314,0.277,0.49,0.703,0.49,1.184c0,0.823-0.518,1.369-1.174,1.59v0.028c0.481,0.167,0.768,0.61,0.916,1.258
		c0.204,0.869,0.352,1.47,0.481,1.71h-0.833c-0.102-0.176-0.24-0.712-0.416-1.489c-0.185-0.86-0.518-1.184-1.248-1.211h-0.758v2.7
		h-0.805V88.375z M52.101,91.213h0.823c0.86,0,1.406-0.471,1.406-1.184c0-0.804-0.583-1.156-1.434-1.165
		c-0.388,0-0.666,0.037-0.795,0.074V91.213z"/>
	<path fill="#3A4317" d="M57.321,92.563l-0.647,1.96h-0.833l2.118-6.232h0.971l2.126,6.232h-0.86l-0.666-1.96H57.321z
		 M59.365,91.934l-0.61-1.793c-0.139-0.407-0.231-0.777-0.324-1.138h-0.019c-0.092,0.37-0.194,0.749-0.314,1.128l-0.61,1.803H59.365
		z"/>
	<path fill="#3A4317" d="M61.969,88.291h0.805v5.558h2.663v0.675h-3.468V88.291z"/>
	<path fill="#3A4317" d="M68.289,88.365c0.389-0.065,0.897-0.121,1.544-0.121c0.795,0,1.378,0.185,1.748,0.518
		c0.342,0.296,0.545,0.749,0.545,1.304c0,0.564-0.167,1.008-0.48,1.332c-0.426,0.453-1.119,0.685-1.905,0.685
		c-0.24,0-0.462-0.009-0.647-0.056v2.497h-0.805V88.365z M69.093,91.37c0.176,0.046,0.397,0.065,0.666,0.065
		c0.971,0,1.563-0.472,1.563-1.332c0-0.823-0.583-1.221-1.47-1.221c-0.352,0-0.62,0.028-0.758,0.065V91.37z"/>
	<path fill="#3A4317" d="M73.204,88.375c0.407-0.083,0.99-0.13,1.544-0.13c0.86,0,1.415,0.157,1.803,0.509
		c0.314,0.277,0.49,0.703,0.49,1.184c0,0.823-0.518,1.369-1.174,1.59v0.028c0.481,0.167,0.768,0.61,0.916,1.258
		c0.204,0.869,0.352,1.47,0.481,1.71h-0.833c-0.102-0.176-0.24-0.712-0.416-1.489c-0.185-0.86-0.518-1.184-1.248-1.211h-0.758v2.7
		h-0.805V88.375z M74.009,91.213h0.823c0.86,0,1.406-0.471,1.406-1.184c0-0.804-0.583-1.156-1.434-1.165
		c-0.388,0-0.666,0.037-0.795,0.074V91.213z"/>
	<path fill="#3A4317" d="M81.402,91.602H78.98v2.247h2.7v0.675h-3.505v-6.232h3.366v0.675H78.98v1.969h2.422V91.602z"/>
	<path fill="#3A4317" d="M87.974,91.787c-0.046-0.87-0.102-1.915-0.093-2.691h-0.027c-0.213,0.73-0.472,1.507-0.786,2.367
		l-1.101,3.023h-0.61l-1.008-2.968c-0.296-0.878-0.545-1.683-0.721-2.422h-0.019c-0.019,0.776-0.064,1.821-0.12,2.755l-0.167,2.672
		h-0.768l0.435-6.232h1.026l1.063,3.015c0.259,0.768,0.472,1.452,0.629,2.099h0.028c0.157-0.629,0.379-1.313,0.656-2.099l1.11-3.015
		h1.026l0.388,6.232h-0.786L87.974,91.787z"/>
	<path fill="#3A4317" d="M90.955,88.291v6.232H90.15v-6.232H90.955z"/>
	<path fill="#3A4317" d="M93.164,88.291v3.689c0,1.396,0.62,1.988,1.452,1.988c0.925,0,1.517-0.61,1.517-1.988v-3.689h0.813v3.634
		c0,1.914-1.008,2.7-2.358,2.7c-1.276,0-2.238-0.73-2.238-2.663v-3.671H93.164z"/>
	<path fill="#3A4317" d="M103.589,91.787c-0.046-0.87-0.102-1.915-0.093-2.691h-0.027c-0.213,0.73-0.472,1.507-0.786,2.367
		l-1.101,3.023h-0.61l-1.008-2.968c-0.296-0.878-0.545-1.683-0.721-2.422h-0.019c-0.019,0.776-0.064,1.821-0.12,2.755l-0.167,2.672
		H98.17l0.435-6.232h1.027l1.063,3.015c0.259,0.768,0.472,1.452,0.629,2.099h0.028c0.157-0.629,0.379-1.313,0.656-2.099l1.11-3.015
		h1.026l0.388,6.232h-0.786L103.589,91.787z"/>
	<path fill="#3A4317" d="M108.529,88.291v6.232h-0.805v-6.232H108.529z"/>
	<path fill="#3A4317" d="M114.289,94.32c-0.296,0.148-0.888,0.296-1.646,0.296c-1.757,0-3.079-1.109-3.079-3.153
		c0-1.951,1.322-3.273,3.255-3.273c0.776,0,1.267,0.167,1.479,0.277l-0.194,0.657c-0.305-0.148-0.74-0.259-1.257-0.259
		c-1.461,0-2.432,0.934-2.432,2.571c0,1.526,0.878,2.506,2.395,2.506c0.49,0,0.989-0.102,1.313-0.259L114.289,94.32z"/>
	<path fill="#3A4317" d="M118.519,91.602h-2.422v2.247h2.7v0.675h-3.505v-6.232h3.366v0.675h-2.562v1.969h2.422V91.602z"/>
	<path fill="#3A4317" d="M126.152,94.32c-0.296,0.148-0.888,0.296-1.646,0.296c-1.757,0-3.079-1.109-3.079-3.153
		c0-1.951,1.322-3.273,3.255-3.273c0.777,0,1.267,0.167,1.479,0.277l-0.194,0.657c-0.305-0.148-0.74-0.259-1.257-0.259
		c-1.461,0-2.432,0.934-2.432,2.571c0,1.526,0.878,2.506,2.395,2.506c0.49,0,0.989-0.102,1.313-0.259L126.152,94.32z"/>
	<path fill="#3A4317" d="M127.156,88.375c0.407-0.083,0.99-0.13,1.544-0.13c0.86,0,1.415,0.157,1.803,0.509
		c0.314,0.277,0.49,0.703,0.49,1.184c0,0.823-0.518,1.369-1.174,1.59v0.028c0.481,0.167,0.768,0.61,0.916,1.258
		c0.204,0.869,0.352,1.47,0.481,1.71h-0.833c-0.102-0.176-0.24-0.712-0.416-1.489c-0.185-0.86-0.518-1.184-1.248-1.211h-0.758v2.7
		h-0.805V88.375z M127.961,91.213h0.823c0.86,0,1.406-0.471,1.406-1.184c0-0.804-0.583-1.156-1.434-1.165
		c-0.388,0-0.666,0.037-0.795,0.074V91.213z"/>
	<path fill="#3A4317" d="M135.354,91.602h-2.422v2.247h2.7v0.675h-3.505v-6.232h3.366v0.675h-2.562v1.969h2.422V91.602z"/>
	<path fill="#3A4317" d="M137.681,92.563l-0.647,1.96h-0.833l2.118-6.232h0.971l2.126,6.232h-0.86l-0.666-1.96H137.681z
		 M139.725,91.934l-0.61-1.793c-0.139-0.407-0.231-0.777-0.324-1.138h-0.019c-0.092,0.37-0.194,0.749-0.314,1.128l-0.61,1.803
		H139.725z"/>
	<path fill="#3A4317" d="M147.543,91.787c-0.046-0.87-0.102-1.915-0.093-2.691h-0.027c-0.213,0.73-0.472,1.507-0.786,2.367
		l-1.101,3.023h-0.61l-1.008-2.968c-0.296-0.878-0.545-1.683-0.721-2.422h-0.019c-0.019,0.776-0.064,1.821-0.12,2.755l-0.167,2.672
		h-0.768l0.435-6.232h1.027l1.063,3.015c0.259,0.768,0.472,1.452,0.629,2.099h0.028c0.157-0.629,0.379-1.313,0.656-2.099l1.11-3.015
		h1.026l0.388,6.232h-0.786L147.543,91.787z"/>
</g>
<g>
	<circle fill="#6F7756" cx="199.25" cy="61.75" r="35.75"/>
	<circle fill="#3A4317" cx="199.25" cy="61.75" r="32.75"/>
	<path fill="#DAB228" stroke="#3A4317" stroke-width="2" stroke-miterlimit="10" d="M231.807,57.598
		c-5.281-6.884-12.414-3.488-12.414-3.488c-3.18-2.4-5.769-1.262-5.769-1.262c-2.903,0.569-3.279,4.984-3.279,4.984l-2.309,26.731
		c-0.421,4.53,3.851,4.583,3.851,4.583c4.065,0.239,4.253-4.382,4.253-4.382l0.452-6.128c4.73,2.51,8.571,1.193,8.578,1.191
		c3.679-1.158,6.89-3.386,8.5-6.993c0.54-1.21,0.941-2.567,1.16-3.874C235.485,65.058,234.2,60.717,231.807,57.598z M222.895,73.659
		c-2.922-0.268-5.031-3.321-4.711-6.819c0.32-3.5,2.947-6.119,5.87-5.853c2.922,0.267,5.031,3.319,4.711,6.819
		C228.445,71.305,225.817,73.926,222.895,73.659z"/>
	<path fill="#FFFFFF" stroke="#3A4317" stroke-width="2" stroke-miterlimit="10" d="M184.404,47.127
		c-7.268-4.739-12.868,0.833-12.868,0.833c-3.796-1.206-5.859,0.728-5.859,0.728c-2.549,1.501-1.437,5.79-1.437,5.79l6.704,25.979
		c1.108,4.414,5.154,3.044,5.154,3.044c3.915-1.125,2.556-5.546,2.556-5.546l-1.611-5.93c5.301,0.797,8.487-1.727,8.487-1.727
		c1.59-1.26,2.963-2.61,3.831-4.475c1.22-2.619,2.173-6.09,1.669-8.986C190.352,52.939,187.697,49.272,184.404,47.127z
		 M181.335,65.236c-2.845,0.718-5.849-1.461-6.709-4.867s0.747-6.75,3.592-7.471c2.845-0.719,5.849,1.461,6.709,4.867
		C185.788,61.171,184.18,64.517,181.335,65.236z"/>
	<path fill="#839C22" d="M199.25,47.75c-7.732,0-14,6.269-14,14c0,7.732,6.268,14,14,14s14-6.268,14-14
		C213.25,54.019,206.982,47.75,199.25,47.75z M199.25,67.75c-3.313,0-6-2.686-6-6c0-3.313,2.687-6,6-6s6,2.688,6,6
		C205.25,65.064,202.563,67.75,199.25,67.75z"/>
</g>
<g>
</g>
<g>
</g>
<g>
</g>
<g>
</g>
<g>
</g>
<g>
</g>
<g>
</g>
<g>
</g>
<g>
</g>
<g>
</g>
<g>
</g>
<g>
</g>
<g>
</g>
<g>
</g>
<g>
</g>
</svg>
