<?xml version="1.0" encoding="utf-8"?>
<!-- Generator: Adobe Illustrator 16.0.0, SVG Export Plug-In . SVG Version: 6.00 Build 0)  -->
<!DOCTYPE svg PUBLIC "-//W3C//DTD SVG 1.1//EN" "http://www.w3.org/Graphics/SVG/1.1/DTD/svg11.dtd">
<svg version="1.1" id="Layer_1" xmlns="http://www.w3.org/2000/svg" xmlns:xlink="http://www.w3.org/1999/xlink" x="0px" y="0px"
	 width="102.667px" height="100px" viewBox="0 0 102.667 100" enable-background="new 0 0 102.667 100" xml:space="preserve">
<g id="Layer_1_1_" display="none">
	<polygon display="inline" fill="#EF507E" points="21.35,83.416 1.019,48.202 21.35,12.988 62.012,12.988 82.343,48.202 
		62.012,83.416 	"/>
	<text transform="matrix(0.94 0 0 1 96.5815 40.4551)" display="inline" font-family="'Monotxt'" font-size="29.732">GREEN </text>
	<text transform="matrix(0.94 0 0 1 139.0347 76.1338)" display="inline" font-family="'Monotxt'" font-size="29.732">ART</text>
	<text transform="matrix(0.94 0 0 1 13.396 72.8145)" display="inline" fill="#FFFFFF" font-family="'Monotxt'" font-size="75">G</text>
</g>
<g id="베스킨라빈스">
	<path fill="#0360A9" d="M100.091,50.05c0,27.101-21.897,48.993-48.902,48.993S2.293,77.15,2.293,50.05
		c0-27.017,21.892-48.909,48.896-48.909S100.091,23.033,100.091,50.05z"/>
	<path fill="#D157A0" d="M98.136,50.052c0,26.017-21.022,47.033-46.947,47.033c-25.924,0-46.94-21.017-46.94-47.033
		C4.249,24.116,25.265,3.1,51.189,3.1S98.136,24.116,98.136,50.052z"/>
	<path fill="#FFFFFF" d="M94.568,50.096c0,24.039-19.425,43.458-43.379,43.458S7.816,74.135,7.816,50.096
		c0-23.965,19.419-43.384,43.373-43.384S94.568,26.131,94.568,50.096z"/>
	<g>
		
			<rect x="28.584" y="59.788" transform="matrix(-0.9835 0.1811 -0.1811 -0.9835 70.5008 124.4413)" fill="#0360A9" width="1.974" height="11.301"/>
		<circle fill="#0360A9" cx="33.551" cy="66.35" r="3.948"/>
		<circle fill="#FFFFFF" cx="33.551" cy="66.349" r="2.146"/>
	</g>
	<g>
		
			<rect x="44.726" y="62.926" transform="matrix(-0.9969 -0.0789 0.0789 -0.9969 85.9435 137.123)" fill="#0360A9" width="1.907" height="7.876"/>
		<path fill="#0360A9" d="M38.56,66.422c0.167-2.099,2.006-3.666,4.106-3.499c2.1,0.168,3.667,2.007,3.5,4.104
			c-0.167,2.101-2.006,3.668-4.106,3.5C39.96,70.361,38.393,68.521,38.56,66.422"/>
		<circle fill="#FFFFFF" cx="42.363" cy="66.726" r="2.073"/>
	</g>
	<path fill="#0360A9" d="M49.434,70.613l-1.354-0.858c0,0,5.011-1.549,1.563-4.44c-3.196-2.68,2.342-5.422,2.342-5.422l0.731,1.596
		c0,0-3.659,1.597-1.089,3.867C55.867,69.105,49.434,70.613,49.434,70.613z"/>
	<g>
		<polygon fill="#0360A9" points="55.117,57.218 57.519,57.33 57.05,65.354 61.738,61.505 63.261,62.577 54.375,69.912 		"/>
		<polygon fill="#0360A9" points="63.121,68.869 61.662,69.88 57.828,65.93 59.289,64.92 		"/>
	</g>
	<g>
		<polygon fill="#0360A9" points="67.539,70.245 65.472,70.383 64.903,61.845 66.675,61.729 		"/>
		<circle fill="#0360A9" cx="65.621" cy="59.634" r="1.576"/>
	</g>
	<polygon fill="#0360A9" points="69.845,60.816 69.228,69.916 70.869,70.027 71.212,64.982 77.216,70.383 77.83,61.363 
		76.044,61.18 75.653,66.161 	"/>
	<g>
		
			<rect x="30.132" y="72.554" transform="matrix(-0.9867 0.1625 -0.1625 -0.9867 74.3913 148.1768)" fill="#0360A9" width="2.007" height="9.154"/>
		<path fill="#0360A9" d="M30.757,74.966c0,0,0.232-2.672,4.2-2.67l0.175,1.283c0,0-3.076-0.494-3.262,3.182L30.757,74.966z"/>
	</g>
	<g>
		<g>
			<path fill="#0360A9" d="M34.809,77.323c0-2.011,1.629-3.64,3.638-3.64c2.009,0,3.638,1.629,3.638,3.64
				c0,2.009-1.63,3.637-3.638,3.637C36.439,80.96,34.809,79.332,34.809,77.323"/>
			<path fill="#0360A9" d="M34.809,77.323c0-2.011,1.629-3.64,3.638-3.64c2.009,0,3.638,1.629,3.638,3.64
				c0,2.009-1.63,3.637-3.638,3.637C36.439,80.96,34.809,79.332,34.809,77.323"/>
		</g>
		<circle fill="#FFFFFF" cx="38.446" cy="77.323" r="1.977"/>
	</g>
	<g>
		
			<rect x="43.149" y="71.375" transform="matrix(-1 -0.0039 0.0039 -1 87.7628 152.9984)" fill="#0360A9" width="1.762" height="10.077"/>
		<path fill="#0360A9" d="M50.892,77.871c-0.004,1.949-1.586,3.52-3.531,3.513c-1.944-0.003-3.517-1.586-3.511-3.53
			c0.006-1.942,1.586-3.516,3.531-3.512C49.326,74.348,50.898,75.93,50.892,77.871z"/>
		<path fill="#FFFFFF" d="M49.285,77.867c-0.002,1.061-0.862,1.914-1.919,1.912c-1.057-0.006-1.911-0.864-1.908-1.924
			c0.002-1.057,0.862-1.91,1.918-1.906C48.433,75.951,49.288,76.811,49.285,77.867z"/>
	</g>
	<g>
		
			<rect x="51.48" y="70.09" transform="matrix(-0.9995 -0.0303 0.0303 -0.9995 102.3447 151.3184)" fill="#0360A9" width="1.677" height="9.589"/>
		<circle fill="#0360A9" cx="55.462" cy="76.352" r="3.351"/>
		<path fill="#FFFFFF" d="M57.283,76.405c-0.029,1.009-0.869,1.798-1.875,1.77c-1.005-0.03-1.796-0.87-1.767-1.878
			c0.03-1.004,0.868-1.795,1.875-1.767C56.521,74.561,57.313,75.398,57.283,76.405z"/>
	</g>
	<g>
		<path fill="#0360A9" d="M79.604,76.457c-0.909-0.123-1.548-0.963-1.424-1.872s0.963-1.548,1.873-1.425
			c0.909,0.124,1.548,0.964,1.424,1.874C81.353,75.941,80.513,76.581,79.604,76.457z M80.029,73.336
			c-0.813-0.109-1.563,0.46-1.674,1.271c-0.109,0.813,0.46,1.563,1.273,1.675c0.812,0.11,1.563-0.46,1.674-1.272
			C81.412,74.197,80.841,73.445,80.029,73.336z"/>
	</g>
	
		<text transform="matrix(0.9314 0.1268 -0.1349 0.9909 78.6284 75.9082)" fill="#0360A9" font-family="'ArialMT'" font-size="3.1811">R</text>
	<g>
		<polygon fill="#015FA8" points="34.062,56.609 29.661,56.896 23.16,22.328 31.772,20.244 		"/>
		<path fill="#D157A0" d="M33.765,19.753l0.445,6.794c11.823-2.394,14.883,4.638,12.017,9.072c-1.337,2.068-6.688,4.007-10.28,2.577
			l0.425,4.715c0,0,8.432-1.834,9.035,4.689c0.339,3.666-1.874,6.23-10.006,6.366l0.298,2.289c0,0,13.724,1.185,16.415-6.944
			c2.099-6.34-4.28-9.096-4.28-9.096s5.597-3.372,5.302-9.406C52.839,24.777,47.772,17.076,33.765,19.753z"/>
	</g>
	<g>
		<polygon fill="#D157A0" points="60.276,55.77 56.346,55.41 55.772,20.023 63.69,19.211 		"/>
		<path fill="#0360A9" d="M64.466,20.369l-0.528,6.079c0,0,9.123,0.025,8.233,7.871c-0.367,3.245-4.014,6.903-8.951,3.88
			l-0.528,6.075l7.49,12.05l4.624-0.389l-4.934-12.368c0,0,5.135-1.053,7.105-4.085C80.187,34.547,82.811,22.323,64.466,20.369z"/>
	</g>
	<g>
		<polygon fill="#0360A9" points="62.251,79.992 60.677,79.909 61.013,73.619 62.362,73.691 		"/>
		<circle fill="#0360A9" cx="61.755" cy="72.013" r="1.199"/>
	</g>
	<polygon fill="#0360A9" points="64.03,71.084 63.408,80.26 65.062,80.372 65.408,75.284 71.464,80.732 72.08,71.634 70.283,71.449 
		69.887,76.473 	"/>
	<path fill="#0360A9" d="M74.192,80.803l-1.237-0.781c0,0,4.576-1.414,1.428-4.056c-2.916-2.446,2.139-4.95,2.139-4.95l0.667,1.457
		c0,0-3.341,1.459-0.995,3.531C80.063,79.427,74.192,80.803,74.192,80.803z"/>
</g>
<g id="공차" display="none">
	<path display="inline" fill="#C32031" d="M82.953,62.908c0,3.313-2.687,6-6,6H62.807c-3.313,0-6-2.688-6-6v-42.67
		c0-3.313,2.687-6,6-6h14.146c3.313,0,6,2.687,6,6V62.908z"/>
	
		<text transform="matrix(0.94 0 0 1 38.4707 83.5068)" display="inline" fill="#3A2F2D" font-family="'BaskOldFace'" font-size="18">Gong cha</text>
</g>
<g id="Layer_4" display="none">
	
		<text transform="matrix(0.94 0 0 1 51.8804 59.751)" display="inline" fill="#DA1C5C" font-family="'NanumBarunpen'" font-size="46.7372">방</text>
	
		<text transform="matrix(0.9129 0.2239 -0.2382 0.9712 84.6304 53.9961)" display="inline" fill="#E05973" font-family="'NanumBarunpen-Bold'" font-size="20.7721">방</text>
	
		<text transform="matrix(0.8753 -0.3428 0.3647 0.9311 141.5103 78.5625)" display="inline" fill="#545A9D" font-family="'NanumBarunpen-Bold'" font-size="20.7721">곡</text>
	
		<text transform="matrix(0.94 0 0 1 101.3394 68.9004)" display="inline" fill="#2D3F8D" font-family="'NanumBarunpen'" font-size="46.7372">곡</text>
</g>
</svg>
